<svg width="46" height="40" viewBox="0 0 46 40" fill="none" xmlns="http://www.w3.org/2000/svg">
<path d="M40 40H0L6 0H46L40 40Z" fill="#262626"/>
<path d="M14.88 10.04H10V30.04H14.88V10.04Z" fill="#F2F2F2"/>
<path d="M37.02 14.7C36.12 13.16 34.88 11.94 33.32 11.06C31.74 10.18 30.02 9.74 28.14 9.74C26.26 9.74 24.54 10.18 22.96 11.06C21.4 11.94 20.16 13.16 19.24 14.7C18.32 16.26 17.86 18.02 17.86 19.98C17.86 21.94 18.32 23.7 19.24 25.26C20.16 26.82 21.4 28.04 22.96 28.92C24.54 29.8 26.26 30.24 28.14 30.24C30.02 30.24 31.74 29.8 33.3 28.92C34.86 28.04 36.1 26.82 37 25.26C37.92 23.7 38.36 21.94 38.36 19.98C38.36 18.02 37.92 16.26 37.02 14.7ZM31.98 24.2C31.02 25.26 29.74 25.78 28.14 25.78C26.54 25.78 25.24 25.26 24.28 24.2C23.32 23.16 22.84 21.74 22.84 19.98C22.84 18.22 23.32 16.78 24.28 15.74C25.24 14.68 26.52 14.16 28.14 14.16C29.76 14.16 31.02 14.7 31.98 15.74C32.94 16.8 33.42 18.22 33.42 19.98C33.42 21.74 32.94 23.14 31.98 24.2Z" fill="#F2F2F2"/>
</svg>
